<svg data-v-fde0c5aa="" xmlns="http://www.w3.org/2000/svg" viewBox="0 0 300 300" class="iconLeft"><!----><defs data-v-fde0c5aa=""><!----></defs><rect data-v-fde0c5aa="" fill="#FFFFFF" x="0" y="0" width="300px" height="300px" class="logo-background-square"></rect><defs data-v-fde0c5aa=""><!----></defs><g data-v-fde0c5aa="" id="9312d3da-630c-4d06-8e1f-062e64713548" fill="#000000" transform="matrix(3.113718365991837,0,0,3.113718365991837,93.6340261980485,118.64485551995702)"><path d="M0.68 14.40L0.66 13.97L4.18 9.01L1.55 9.01L1.17 10.41L0.79 10.35L0.85 8.51L5.28 8.51L5.29 8.87L1.72 13.86L4.54 13.86L5.05 12.52L5.40 12.56L5.20 14.40L0.68 14.40ZM7.44 12.98L7.44 12.98Q7.44 13.34 7.67 13.63Q7.91 13.91 8.30 13.91Q8.70 13.91 9.06 13.68Q9.43 13.45 9.65 13.13L9.65 13.13L9.65 11.46Q8.53 11.65 7.98 12.00Q7.44 12.35 7.44 12.98ZM6.50 13.24L6.50 13.24Q6.50 12.39 7.27 11.82Q8.05 11.25 9.65 11.11L9.65 11.11L9.65 10.78Q9.65 9.82 9.38 9.32Q9.11 8.82 8.40 8.82L8.40 8.82Q8.02 8.82 7.88 8.96Q7.73 9.11 7.66 9.35Q7.59 9.59 7.49 10.29L7.49 10.29Q6.73 10.29 6.73 9.71L6.73 9.71Q6.73 9.37 7.08 9.04Q7.42 8.71 7.93 8.51Q8.43 8.32 8.89 8.32L8.89 8.32Q9.74 8.32 10.13 8.83Q10.52 9.34 10.52 10.42L10.52 10.42L10.52 12.82Q10.52 13.35 10.65 13.59Q10.77 13.83 11.20 13.90L11.20 13.90L11.60 13.97L11.54 14.38Q10.96 14.52 10.61 14.52Q10.25 14.52 10.01 14.25Q9.77 13.98 9.77 13.60L9.77 13.60L9.77 13.50L9.71 13.50Q9.56 13.88 9.07 14.22Q8.58 14.57 7.94 14.57Q7.31 14.57 6.90 14.21Q6.50 13.85 6.50 13.24ZM12.87 12.59L12.87 12.59Q13.19 14.12 14.20 14.12L14.20 14.12Q14.70 14.12 14.98 13.89Q15.27 13.66 15.27 13.36Q15.27 13.06 15.11 12.84Q14.96 12.62 14.70 12.44Q14.44 12.26 14.14 12.07L14.14 12.07Q13.40 11.64 12.90 11.20Q12.39 10.76 12.39 10.08Q12.39 9.40 12.87 8.86Q13.34 8.32 14.29 8.32L14.29 8.32Q14.96 8.32 15.41 8.66Q15.86 9.00 15.86 9.45L15.86 9.45Q15.86 10.25 15.14 10.32L15.14 10.32L15.09 10.05Q14.79 8.76 14.03 8.76L14.03 8.76Q13.61 8.76 13.36 8.99Q13.12 9.23 13.12 9.56Q13.12 9.89 13.28 10.14L13.28 10.14Q13.54 10.52 14.28 10.96L14.28 10.96L14.92 11.35Q15.66 11.84 15.91 12.30L15.91 12.30Q16.08 12.61 16.08 12.95L16.08 12.95Q16.08 13.69 15.47 14.16Q14.85 14.64 14.03 14.64Q13.21 14.64 12.68 14.27Q12.14 13.90 12.14 13.34L12.14 13.34Q12.14 13.04 12.35 12.83Q12.55 12.63 12.87 12.59ZM19.73 11.48L16.94 11.60L17.01 11.05L19.80 10.93L19.73 11.48ZM23.76 14.40L20.84 14.40L20.90 14.04L21.94 13.81L21.94 9.24L20.88 8.97L20.93 8.61L22.74 8.41L22.83 8.50L22.76 9.41L22.81 9.41Q23.15 8.98 23.73 8.65Q24.32 8.31 24.99 8.31Q25.67 8.31 26.09 8.81Q26.52 9.31 26.52 10.29L26.52 10.29L26.52 13.81L27.48 14L27.43 14.40L24.61 14.40L24.66 14.04L25.62 13.81L25.62 10.51Q25.62 9.78 25.30 9.42Q24.97 9.06 24.48 9.06Q23.98 9.06 23.61 9.23Q23.24 9.41 22.83 9.82L22.83 9.82L22.83 13.81L23.83 14L23.76 14.40ZM31.20 14.40L28.17 14.40L28.25 14.02L29.29 13.80L29.29 9.12L28.25 8.83L28.30 8.48L30.07 8.33L30.18 8.44L30.18 13.80L31.27 14.01L31.20 14.40ZM29.66 6.92Q29.39 6.92 29.23 6.72Q29.08 6.52 29.08 6.20Q29.08 5.89 29.24 5.69Q29.39 5.50 29.65 5.50Q29.91 5.50 30.08 5.69Q30.24 5.89 30.24 6.21Q30.24 6.53 30.08 6.73Q29.93 6.92 29.66 6.92ZM32.63 12.59L32.63 12.59Q32.95 14.12 33.96 14.12L33.96 14.12Q34.46 14.12 34.75 13.89Q35.03 13.66 35.03 13.36Q35.03 13.06 34.88 12.84Q34.72 12.62 34.46 12.44Q34.21 12.26 33.90 12.07L33.90 12.07Q33.16 11.64 32.66 11.20Q32.16 10.76 32.16 10.08Q32.16 9.40 32.63 8.86Q33.11 8.32 34.05 8.32L34.05 8.32Q34.72 8.32 35.17 8.66Q35.62 9.00 35.62 9.45L35.62 9.45Q35.62 10.25 34.90 10.32L34.90 10.32L34.85 10.05Q34.56 8.76 33.79 8.76L33.79 8.76Q33.37 8.76 33.13 8.99Q32.88 9.23 32.88 9.56Q32.88 9.89 33.04 10.14L33.04 10.14Q33.30 10.52 34.04 10.96L34.04 10.96L34.68 11.35Q35.42 11.84 35.68 12.30L35.68 12.30Q35.84 12.61 35.84 12.95L35.84 12.95Q35.84 13.69 35.23 14.16Q34.62 14.64 33.80 14.64Q32.98 14.64 32.44 14.27Q31.90 13.90 31.90 13.34L31.90 13.34Q31.90 13.04 32.11 12.83Q32.31 12.63 32.63 12.59ZM38.47 9.39L38.52 9.39Q39.50 8.31 40.70 8.31L40.70 8.31Q41.36 8.31 41.78 8.78Q42.19 9.26 42.19 10.38L42.19 10.38L42.19 13.81L43.16 14L43.10 14.40L40.29 14.40L40.35 14.03L41.29 13.81L41.31 10.56L41.31 10.51Q41.31 9.74 40.97 9.39Q40.64 9.04 40.12 9.04L40.12 9.04Q39.26 9.04 38.55 9.82L38.55 9.82L38.55 13.80L39.55 14L39.48 14.40L36.52 14.40L36.60 14.01L37.65 13.80L37.65 6.51L36.58 6.22L36.64 5.85L38.45 5.71L38.55 5.82L38.55 8.66L38.47 9.39ZM44.87 12.98L44.87 12.98Q44.87 13.34 45.11 13.63Q45.34 13.91 45.74 13.91Q46.13 13.91 46.49 13.68Q46.86 13.45 47.09 13.13L47.09 13.13L47.09 11.46Q45.96 11.65 45.42 12.00Q44.87 12.35 44.87 12.98ZM43.93 13.24L43.93 13.24Q43.93 12.39 44.71 11.82Q45.48 11.25 47.09 11.11L47.09 11.11L47.09 10.78Q47.09 9.82 46.81 9.32Q46.54 8.82 45.83 8.82L45.83 8.82Q45.45 8.82 45.31 8.96Q45.17 9.11 45.09 9.35Q45.02 9.59 44.92 10.29L44.92 10.29Q44.17 10.29 44.17 9.71L44.17 9.71Q44.17 9.37 44.51 9.04Q44.86 8.71 45.36 8.51Q45.86 8.32 46.33 8.32L46.33 8.32Q47.17 8.32 47.56 8.83Q47.95 9.34 47.95 10.42L47.95 10.42L47.95 12.82Q47.95 13.35 48.08 13.59Q48.21 13.83 48.64 13.90L48.64 13.90L49.03 13.97L48.97 14.38Q48.39 14.52 48.04 14.52Q47.69 14.52 47.44 14.25Q47.20 13.98 47.20 13.60L47.20 13.60L47.20 13.50L47.15 13.50Q46.99 13.88 46.50 14.22Q46.01 14.57 45.38 14.57Q44.74 14.57 44.34 14.21Q43.93 13.85 43.93 13.24ZM51.69 14.56L51.69 14.56Q50.37 14.56 50.38 12.68L50.38 12.68L50.41 9.13L49.54 9.13L49.54 8.85Q50.46 8.44 51.00 7.10L51.00 7.10L51.32 7.10L51.32 8.65L53.26 8.65L53.20 9.15L51.32 9.15L51.30 12.28Q51.30 13.11 51.52 13.42Q51.73 13.73 52.21 13.73Q52.69 13.73 53.15 13.40L53.15 13.40L53.30 13.28L53.43 13.58Q53.12 14.03 52.65 14.30Q52.19 14.56 51.69 14.56Z"></path></g><defs data-v-fde0c5aa=""><!----></defs><g data-v-fde0c5aa="" id="cb77f987-5060-46e2-b687-5876309c3efd" stroke="none" fill="#545454" transform="matrix(1.3340337625394885,0,0,1.3340337625394885,40,128.65545979936817)"><path d="M11.579 32H32L21.789 14.314z"></path><circle cx="8.683" cy="8.683" r="8.683"></circle></g><!----></svg>